<svg width="1799" height="844" viewBox="0 0 1799 844" fill="none" xmlns="http://www.w3.org/2000/svg">
<path d="M-13.5144 561.228C12.2236 493.147 81.497 470.617 141.439 481.756C201.401 492.802 257.235 529.034 316.048 548.718C473.655 601.368 649.62 520.708 739.769 354.483C768.651 301.19 789.071 240.954 817.604 187.343C846.136 133.733 885.55 85.4688 935.86 72.2309C1008.22 53.2411 1081.69 111.113 1136.62 177.82C1191.54 244.526 1239.35 324.489 1306.43 369.096C1394.59 427.675 1501.86 413.553 1589.54 362.192C1677.14 310.806 1749.16 226.436 1819.65 143.36M-15.5625 553.123C11.1095 485.757 80.2074 463.268 140.287 474.152C166.235 478.827 191.511 488.289 216.452 499.343C249.181 513.806 281.456 530.824 314.541 542.8C382.016 567.288 452.542 568.536 519.182 547.43C570.629 531.164 619.275 503.233 661.554 464.349C691.783 436.771 718.283 403.133 740.04 364.298C749.784 346.907 758.613 328.708 767.092 310.192C784.344 272.556 800.176 233.743 819.723 198.279C841.931 158.091 870.387 121.498 905.374 101.828C916.262 95.6473 927.653 91.0386 939.625 88.4287C989.852 77.5691 1039.78 103.805 1084.7 142.397C1104.11 159.121 1122.64 178.055 1139.5 197.431C1158.37 219.087 1176.54 241.711 1194.8 263.56C1230.6 306.622 1266.35 347.16 1309.09 371.892C1336.91 387.919 1365.99 395.947 1396.04 397.783C1457.1 401.58 1522.62 379.094 1581.11 342.026C1597.17 331.862 1612.76 320.741 1628.11 308.833C1696.26 255.951 1758.01 189.096 1818.15 126.716M-17.5908 544.925C10.093 478.298 78.9572 455.731 139.174 466.361C165.22 470.968 190.495 480.43 215.494 491.604C248.184 506.254 280.341 523.834 313.151 536.721C380.076 563.03 449.816 567.624 516.646 548.386C568.285 533.588 617.141 507.833 660.272 471.239C691.121 445.071 718.185 412.323 740.428 373.952C750.366 356.826 759.351 338.68 768.064 320.242C785.686 282.83 801.927 244.054 821.863 209.12C844.557 169.396 873.497 134.068 909.123 116.116C920.127 110.575 931.498 106.461 943.429 104.439C993.397 95.9995 1042.17 124.155 1086.99 162.815C1106.48 179.564 1125.25 198.176 1142.51 216.787C1161.82 237.585 1180.52 258.883 1199.07 278.926C1235.43 318.564 1270.95 354.616 1311.99 374.366C1338.57 387.17 1365.55 391.689 1393.85 390.735C1451.25 388.592 1514.74 361.42 1572.96 321.657C1588.93 310.759 1604.66 298.982 1620.17 286.726C1689.31 231.872 1754.26 166.888 1816.88 109.75M-19.6191 536.727C9.07644 470.84 77.707 448.195 138.041 458.663C164.107 463.177 189.558 472.597 214.517 483.959C247.226 498.916 279.108 517.006 311.741 530.735C378.195 558.891 446.992 566.779 514.091 549.435C565.921 536.105 615.065 512.551 658.97 478.222C690.518 453.491 718.067 421.608 740.816 383.606C750.968 366.652 760.147 348.771 769.114 330.318C787.105 293.13 803.756 254.39 824.1 219.895C847.28 180.634 876.627 146.545 912.97 130.336C924.089 125.436 935.44 121.816 947.234 120.45C996.865 114.404 1044.55 144.598 1089.29 183.232C1108.83 200.101 1127.78 218.271 1145.45 236.117C1165.19 256.057 1184.34 276.002 1203.25 294.359C1240.2 330.386 1275.54 362.165 1314.79 376.908C1340.22 386.422 1365.07 387.619 1391.49 383.728C1445.18 375.832 1506.71 343.695 1564.57 301.303C1580.46 289.578 1596.21 277.306 1611.89 264.608C1681.96 207.756 1750.1 144.642 1815.34 92.8926M-21.6474 528.529C8.0402 463.475 76.4567 440.658 136.986 450.992C163.149 455.437 188.62 464.764 213.598 476.433C246.267 491.577 278.032 510.229 310.39 524.869C376.313 554.753 444.304 566.08 511.496 550.672C563.596 538.835 613.008 517.577 657.551 485.366C689.876 462.099 717.832 431.053 740.989 393.489C751.336 376.8 760.749 358.998 769.871 340.596C788.252 303.539 805.272 265.023 826.122 230.898C849.769 192.194 879.562 159.156 916.583 144.879C927.837 140.525 939.128 137.587 950.901 136.715C1000.27 133.089 1046.7 165.271 1091.52 203.931C1111.05 220.894 1130.32 238.673 1148.31 255.822C1168.46 274.997 1188.16 293.522 1207.26 310.141C1244.77 342.743 1279.98 369.969 1317.36 379.772C1341.63 386.09 1364.38 383.778 1388.99 376.977C1439.06 363.26 1498.45 326.292 1556.1 281.324C1571.97 268.891 1587.78 255.937 1603.64 242.797C1674.61 184.041 1745.97 122.61 1813.74 76.3161M-23.6758 520.331C7.02367 456.017 75.2065 433.122 135.853 443.294C162.036 447.646 187.585 456.999 212.621 468.787C245.251 484.119 276.897 503.333 308.98 518.883C374.354 550.588 441.5 565.141 508.941 551.722C561.232 541.353 610.912 522.39 656.23 492.443C689.253 470.612 717.715 440.337 741.358 403.236C751.918 386.72 761.545 369.089 770.803 350.834C789.554 314 806.984 275.521 828.222 241.927C852.355 203.686 882.555 171.888 920.293 159.355C931.585 155.615 942.933 153.197 954.588 152.887C1003.6 151.748 1048.98 185.782 1093.68 224.603C1113.28 241.592 1132.79 259.049 1151.19 275.434C1171.77 293.75 1191.93 310.922 1211.4 325.761C1249.48 354.846 1284.68 377.757 1320.12 382.5C1343.31 385.649 1363.8 379.776 1386.66 370.184C1433.15 350.553 1490.44 308.873 1547.82 261.209C1563.6 248.042 1579.53 234.527 1595.56 220.944C1667.45 160.19 1742.09 100.656 1812.39 59.7243M-25.8017 512.201C5.90952 448.627 73.839 425.746 134.622 435.664C160.903 439.948 186.549 449.233 211.546 461.209C244.195 476.848 275.567 496.572 307.473 512.965C372.395 546.423 438.656 564.39 506.288 552.839C558.751 544.031 608.796 527.296 654.831 499.494C688.63 479.126 717.499 449.689 741.629 413.052C752.325 396.681 762.166 379.222 771.736 361.071C790.857 324.462 808.773 286.046 830.342 252.862C854.941 215.179 885.587 184.432 924.022 173.736C935.45 170.543 946.757 168.713 958.372 168.991C1007.05 170.246 1051.25 206.293 1095.95 245.114C1115.62 262.223 1135.38 279.264 1154.11 294.858C1175.12 312.316 1195.73 328.134 1215.56 341.288C1254.19 366.949 1289.52 385.291 1322.9 385.136C1345.1 385.046 1363.32 375.706 1384.3 363.177C1427.1 337.7 1482.41 291.148 1539.5 240.881C1555.2 226.887 1571.25 212.81 1587.44 198.878C1660.33 136.153 1738.08 78.463 1810.95 42.7993M-27.83 504.003C4.87327 441.262 72.5887 418.21 133.509 427.872C159.809 432.063 185.534 441.375 210.569 453.564C243.178 469.39 274.433 489.676 306.064 506.979C370.436 542.259 435.91 563.571 503.733 553.889C556.388 546.549 606.778 532.135 653.529 506.477C688.027 487.546 717.381 458.973 741.997 422.799C752.888 406.694 762.962 389.314 772.688 371.215C792.198 334.736 810.504 296.45 832.481 263.704C857.567 226.484 888.639 196.882 927.752 188.118C939.217 185.539 950.582 184.23 962.079 185.07C1010.5 188.744 1053.53 226.804 1098.15 265.6C1117.81 282.708 1137.89 299.453 1156.96 314.256C1178.32 330.829 1199.53 345.347 1219.65 356.695C1258.86 378.838 1294.32 392.611 1325.55 387.625C1346.86 384.23 1362.63 371.464 1381.86 356.145C1421.06 324.753 1474.28 273.49 1531.11 220.527C1546.79 205.825 1562.81 191.134 1579.25 176.786C1653.06 112.063 1734.1 56.176 1809.49 25.968M-29.8584 495.805C3.85673 433.804 71.3385 410.673 132.454 420.2C158.852 424.324 184.674 433.568 209.67 445.944C242.22 462.051 273.356 482.899 304.654 500.993C368.476 538.094 433.086 562.726 501.158 555.032C554.004 549.16 604.663 537.041 652.208 513.554C687.482 496.086 717.244 468.351 742.365 432.547C753.47 416.614 763.759 399.405 773.718 381.384C793.598 345.129 812.313 306.88 834.699 274.572C860.271 237.815 891.69 209.333 931.58 202.432C943.18 200.399 954.504 199.678 965.941 201.2C1014.03 207.268 1055.9 247.248 1100.5 286.137C1120.22 303.365 1140.55 319.694 1160.01 333.825C1181.78 349.634 1203.47 362.706 1223.95 372.368C1263.7 391.087 1299.48 400.155 1328.46 390.406C1348.9 383.612 1362.29 367.54 1379.61 349.378C1415.15 312.046 1466.35 256.097 1522.83 200.413C1538.42 184.977 1554.57 169.63 1571.17 154.934C1645.9 88.2128 1730.13 34.1961 1808.06 9.35006M-31.8867 487.607C2.84018 426.345 70.0882 403.137 131.321 412.503C157.739 416.532 183.658 425.709 208.693 438.298C241.203 454.593 272.143 475.976 303.225 495.101C366.595 533.956 430.32 562.001 498.583 556.175C551.621 551.77 602.625 541.973 650.867 520.725C686.898 504.813 717.087 477.823 742.694 442.482C753.993 426.814 764.438 409.658 774.631 391.715C794.959 355.71 814.005 317.472 836.779 285.694C862.818 249.495 894.683 222.064 935.25 217.094C946.888 215.676 958.25 215.569 969.588 217.559C1017.34 226.021 1058.11 268.04 1102.64 306.903C1122.44 324.157 1142.93 340.137 1162.79 353.504C1185 368.455 1207.13 380.173 1227.91 388.03C1268.24 403.231 1304.22 407.356 1331.05 393.176C1350.56 382.864 1361.54 363.579 1377.14 342.533C1409.07 299.286 1458.12 238.507 1514.4 180.246C1529.97 164.103 1546.16 148.168 1562.95 132.936C1638.6 64.2167 1726.1 12.0965 1806.6 -7.48127M-33.915 479.409C1.74576 418.861 68.8183 395.694 130.188 404.805C156.703 408.767 182.623 417.943 207.638 430.627C240.167 447.228 270.931 469.054 301.738 489.09C364.558 529.765 427.438 561.036 495.949 557.199C549.257 554.288 600.587 546.905 649.488 527.682C686.295 513.233 716.891 487.081 743.005 452.11C754.517 436.614 765.176 419.629 775.525 401.739C796.242 365.864 815.678 327.756 838.86 296.416C865.385 260.681 897.619 234.275 938.942 231.263C950.715 230.391 962.037 230.872 973.334 233.45C1020.8 244.425 1060.37 288.244 1104.85 327.294C1124.63 344.643 1145.45 360.232 1165.66 372.808C1188.29 386.9 1210.85 397.36 1232.01 403.437C1272.81 415.188 1309.14 414.114 1333.7 395.666C1352.4 381.673 1360.92 359.363 1374.62 335.474C1402.89 286.287 1449.92 220.823 1505.93 159.867C1521.42 142.895 1537.63 126.466 1554.68 110.818C1631.33 40.1269 1721.94 -10.1489 1805.06 -24.3386M-35.9631 471.305C0.68983 411.59 67.5484 388.251 129.035 397.201C155.57 401.069 181.665 410.204 206.621 423.168C239.111 439.958 269.737 462.439 300.289 483.291C362.637 525.814 424.652 560.405 493.355 558.435C546.835 557.086 598.53 551.931 648.147 534.852C685.632 521.934 716.734 496.552 743.334 462.045C755.041 446.815 765.933 429.908 776.515 412.096C797.603 376.445 817.428 338.468 841.116 307.497C868.107 272.319 900.709 246.939 942.885 245.816C954.716 245.465 966.075 246.56 977.333 249.726C1024.47 263.095 1062.93 308.954 1107.34 347.978C1127.18 365.445 1148.25 380.619 1168.85 392.524C1191.91 405.758 1215.01 414.89 1236.43 419.255C1277.79 427.583 1314.23 421.231 1336.73 398.686C1354.39 380.936 1360.62 355.652 1372.59 328.879C1397.18 273.752 1442.2 203.603 1497.92 140.044C1513.32 122.339 1529.67 105.254 1546.79 89.2306C1624.34 16.6358 1718.19 -31.957 1803.82 -40.691M-37.9914 463.107C-0.326702 404.132 66.2982 380.715 128 389.436C154.633 393.236 180.747 402.278 205.742 415.455C238.192 432.432 268.622 455.449 298.977 477.238C360.795 521.488 422.004 559.518 490.799 559.485C544.471 559.603 596.492 556.863 646.767 541.809C685.029 530.354 716.538 505.81 743.624 471.767C755.545 456.708 766.652 439.974 777.39 422.214C798.847 386.787 819.081 348.846 843.158 318.407C870.558 283.666 903.605 259.337 946.517 260.265C958.463 260.554 969.802 262.144 980.942 265.872C1027.74 281.635 1065.03 329.506 1109.44 368.53C1129.36 386.024 1150.67 400.875 1171.59 411.989C1195.07 424.458 1218.63 432.145 1240.43 434.73C1282.34 439.633 1318.83 427.885 1339.35 401.269C1355.99 379.667 1359.91 351.504 1370.05 321.915C1390.98 260.847 1434 185.919 1489.43 119.757C1504.81 101.345 1521.2 83.6715 1538.5 67.2063C1616.97 -7.38631 1714.09 -54.0827 1802.26 -57.4548M-40.0976 454.883C-1.42114 396.647 64.8922 373.126 126.789 381.712C153.441 385.419 179.712 394.512 204.687 407.784C237.156 425.067 267.41 448.526 297.489 471.226C358.758 517.297 419.102 558.647 488.166 560.509C542.029 562.095 594.397 561.676 645.368 548.86C684.387 538.961 716.323 515.162 743.915 481.488C756.05 466.602 767.292 450.013 778.342 432.357C800.188 397.061 820.812 359.25 845.298 329.249C873.163 295.065 906.599 271.668 950.267 274.553C962.27 275.363 973.627 277.66 984.726 281.976C1031.26 300.159 1067.4 349.95 1111.79 389.068C1131.69 406.655 1153.33 421.116 1174.59 431.439C1198.5 443.05 1222.49 449.477 1244.67 450.283C1287.05 451.736 1323.5 434.659 1342.21 403.93C1357.65 378.518 1359.43 347.434 1367.84 314.96C1385.1 247.952 1426.02 168.313 1481.19 99.4557C1496.49 80.2154 1513 61.9802 1530.46 45.1665C1609.93 -31.3979 1710.16 -76.2499 1800.9 -74.3536M-42.1259 446.685C-2.45739 389.283 63.6419 365.59 125.656 374.014C152.406 377.654 178.696 386.653 203.69 400.232C236.12 417.702 266.158 441.791 295.982 465.308C356.779 513.226 416.258 557.896 485.513 561.626C539.568 564.679 592.339 566.702 643.969 555.911C683.744 547.568 716.107 524.514 744.185 491.304C756.515 476.683 767.991 460.172 779.177 442.662C801.393 407.59 822.426 369.816 847.32 340.252C875.672 306.531 909.475 284.16 953.899 289.002C966.038 290.358 977.354 293.244 988.335 298.122C1034.54 318.698 1069.5 370.503 1113.89 409.62C1133.87 427.234 1155.66 441.346 1177.41 450.931C1201.67 461.657 1226.2 466.758 1248.67 465.757C1291.59 463.881 1327.85 441.328 1344.76 406.487C1358.99 377.264 1358.72 343.286 1365.23 307.969C1378.79 235.114 1417.72 150.696 1472.62 79.1433C1487.91 59.1952 1504.38 40.346 1522.11 23.0224C1602.5 -55.5398 1706.02 -98.589 1799.28 -91.2371M-44.1543 438.487C-3.47393 381.825 62.372 358.147 124.523 366.316C151.293 369.862 177.739 378.914 202.713 392.586C235.084 410.338 265.023 434.895 294.573 459.322C354.84 508.968 413.454 556.957 482.938 562.769C537.165 567.384 590.282 571.728 642.648 562.988C683.258 556.228 716.048 533.918 744.554 501.051C757.097 486.602 768.768 470.357 780.129 452.806C802.715 417.957 824.235 380.246 849.44 351.187C878.278 317.93 912.547 296.516 957.609 303.478C969.805 305.354 981.237 308.879 992.1 314.32C1038.04 337.316 1071.84 391.134 1116.13 430.319C1136.16 448.052 1158.21 461.748 1180.27 470.636C1204.96 480.504 1230 484.371 1252.77 481.565C1296.24 476.264 1332.2 448.399 1347.48 409.403C1360.44 376.344 1358.1 339.471 1362.86 301.364C1372.68 222.542 1409.69 133.372 1464.31 59.2163C1479.49 38.5343 1496.1 19.0294 1513.99 1.35724C1595.3 -79.2027 1702.01 -120.382 1797.81 -107.668M-46.2023 430.383C-4.51016 374.46 61.102 350.704 123.448 358.738C150.316 362.217 176.781 371.175 201.794 385.06C234.203 403.025 263.927 428.212 293.221 453.456C352.939 504.923 410.766 556.258 480.441 563.938C534.937 570.047 588.302 576.78 641.404 570.091C682.771 564.887 716.008 543.228 744.98 510.919C757.718 496.735 769.622 480.568 781.217 463.095C804.193 428.377 826.103 390.796 851.715 362.174C881.02 329.475 915.696 308.899 961.495 317.912C973.748 320.308 985.218 324.448 995.962 330.45C1041.55 355.933 1074.21 411.577 1118.48 450.856C1138.59 468.616 1160.87 481.989 1183.27 490.086C1208.37 499.189 1233.88 501.61 1257.02 497.024C1301.04 488.3 1336.68 455.214 1350.36 411.971C1361.92 375.237 1357.57 335.281 1360.6 294.29C1366.59 209.476 1401.74 115.672 1456.09 38.8209C1471.18 17.4051 1487.91 -2.6618 1505.97 -20.7762C1588.12 -103.36 1698.05 -142.762 1796.47 -124.66M-48.2306 422.185C-5.52669 367.002 59.8518 343.168 122.335 350.947C149.222 354.332 175.785 363.222 200.836 377.321C233.187 395.567 262.734 421.196 291.831 447.377C351.077 500.691 407.962 555.32 477.905 564.894C532.594 572.471 586.343 581.738 640.122 576.98C682.246 573.333 715.91 552.419 745.368 520.573C758.242 506.535 770.36 490.54 782.189 473.145C805.612 438.677 827.834 401.201 853.874 372.923C883.665 340.686 918.71 321.136 965.264 332.106C977.652 335.049 989.062 339.87 999.786 346.367C1045.04 374.244 1076.6 431.927 1120.79 471.18C1140.88 489.033 1163.5 502.017 1186.23 509.323C1211.76 517.567 1237.7 518.729 1261.21 512.364C1305.79 500.215 1341.11 461.909 1353.1 414.392C1363.29 373.89 1356.97 330.972 1358.26 287.19C1360.64 196.555 1393.63 97.9206 1447.79 18.3994C1462.89 -3.81784 1479.57 -24.4988 1497.88 -42.9358C1580.91 -127.33 1694.02 -164.862 1794.98 -141.398M-50.2589 413.987C-6.56291 359.637 58.6016 335.631 121.202 343.249C148.187 346.566 174.828 355.483 199.839 369.769C232.15 388.202 261.579 414.394 290.402 441.485C349.118 496.526 405.196 554.594 475.33 566.037C530.21 575.082 584.285 586.764 638.781 584.15C681.661 582.06 715.752 561.89 745.717 530.414C758.785 516.642 771.137 500.725 783.2 483.408C806.993 449.165 829.623 411.725 856.13 384.004C886.388 352.325 921.859 333.519 969.11 346.727C981.556 350.191 993.003 355.626 1003.59 362.778C1048.58 393.075 1078.89 452.745 1123.08 491.998C1143.23 509.971 1166.11 522.539 1189.24 529.08C1215.21 536.466 1241.65 536.395 1265.47 528.224C1310.58 512.745 1345.58 469.219 1355.98 417.361C1364.85 373.209 1356.59 327.235 1355.99 280.516C1354.7 183.941 1385.7 80.5283 1439.47 -1.52762C1454.47 -24.4787 1471.28 -45.7217 1489.78 -64.6946C1573.9 -151.128 1690.23 -186.883 1793.73 -158.057M-52.2873 405.789C-7.65736 352.153 57.3317 328.188 120.069 335.551C147.074 338.775 173.812 347.624 198.862 362.123C231.134 380.744 260.425 407.591 288.993 435.499C347.159 492.361 402.45 553.776 472.677 567.155C527.749 577.667 582.15 591.764 637.382 591.201C681.019 590.668 715.537 571.242 745.91 540.203C759.192 526.603 771.758 510.858 783.976 493.593C808.159 459.48 831.179 422.171 858.094 394.887C888.838 363.671 924.775 345.824 972.684 361.056C985.265 365.067 996.672 371.09 1007.22 378.83C1051.87 411.521 1081.11 473.137 1125.2 512.457C1145.43 530.456 1168.54 542.701 1191.99 548.545C1218.38 555.073 1245.34 553.769 1269.39 543.672C1315.11 524.889 1349.69 476.211 1358.53 419.918C1365.98 372.184 1355.8 323.061 1353.45 273.552C1348.49 171.036 1377.48 62.9379 1430.98 -21.8139C1445.89 -45.4989 1462.81 -67.3039 1481.41 -86.745C1566.45 -175.176 1686.05 -209.035 1792.11 -174.941M-54.4132 397.659C-8.77148 344.762 55.9838 320.719 118.917 327.947C146.018 331.103 172.855 339.884 197.865 354.571C230.156 373.499 259.193 400.762 287.485 429.581C345.18 488.29 399.548 552.905 470.024 568.272C525.268 580.345 580.053 596.977 635.905 598.226C680.259 599.436 715.244 580.568 746.123 549.899C759.619 536.47 772.321 520.871 784.773 503.685C809.325 469.795 832.754 432.523 860.078 405.677C891.308 374.925 927.633 358.009 976.278 375.292C988.916 379.823 1000.36 386.46 1010.79 394.763C1055.11 429.847 1083.17 493.476 1127.24 532.89C1147.45 550.983 1170.81 562.812 1194.67 567.891C1221.48 573.654 1248.91 570.903 1273.31 559.121C1319.59 536.914 1353.81 483.203 1361 422.448C1367.06 371.04 1354.91 318.954 1350.76 266.535C1342.11 158.172 1369.1 45.2954 1422.34 -42.1524C1437.22 -66.5451 1454.13 -89.0578 1472.96 -108.822C1558.93 -199.251 1681.72 -231.239 1790.32 -191.783M-56.4415 389.461C10.3541 314.871 113.643 297.51 196.888 346.926C294.886 405.089 362.15 543.596 467.469 569.321C522.904 582.862 578.016 601.909 634.604 605.209C699.415 609.056 744.207 570.111 785.803 513.855C839.263 441.619 887.672 353.356 980.085 389.7C1046.93 415.983 1075.21 504.749 1129.59 553.428C1172.68 592.008 1230.79 600.331 1277.62 574.7C1324.45 549.069 1358.39 490.351 1363.94 425.136C1368.66 370.172 1354.59 314.936 1348.63 259.606C1332.85 113.369 1378.11 -38.4082 1465.07 -130.809C1552.04 -223.21 1677.97 -253.448 1789.17 -208.51M-53.6286 404.238C12.3713 337.001 114.406 322.829 197.383 370.35C238.92 394.077 275.224 431.191 311.14 467.373C347.931 504.55 384.237 540.863 425.702 561.758C439.037 568.527 452.96 573.689 467.512 576.654C522.27 587.863 576.432 604.287 632.885 607.04C696.84 610.199 741.9 573.549 783.662 521.259C793.277 509.238 802.717 496.858 812.274 484.718C840.299 448.983 869.098 415.914 906.093 404.536C926.765 398.221 949.976 398.47 976.77 408.641C1042.96 433.701 1072.34 516.019 1125.72 559.951C1132.84 565.743 1140.29 570.744 1148 574.928C1186.43 595.608 1231.64 595.903 1269.34 573.633C1314.65 546.892 1347.45 488.491 1353.55 424.166C1358.76 369.666 1346.23 314.644 1341.59 259.758C1333.58 165.042 1350.76 68.2339 1387.85 -12.589C1407.77 -55.75 1433.29 -94.2288 1463.72 -125.549C1519.19 -182.774 1589.95 -215.135 1662.83 -220.317C1704.74 -223.334 1747.28 -217.114 1787.88 -201.22M-50.8354 419.108C14.3886 359.13 115.15 348.241 197.838 393.962C239.376 416.887 275.977 451.795 312.036 485.318C348.989 519.742 385.068 552.77 426.265 571.371C439.505 577.406 453.254 581.807 467.592 584.2C521.576 593.145 574.945 606.997 631.224 608.99C694.401 611.488 739.613 576.894 781.6 528.689C791.271 517.589 800.826 506.251 810.341 495.099C838.399 462.383 866.801 432.389 903.422 422.79C923.975 417.438 946.951 418.01 973.357 427.65C1038.88 451.486 1069.43 527.477 1121.81 566.662C1128.81 571.814 1136.05 576.242 1143.63 579.879C1181.06 597.723 1224.7 595.987 1261.08 572.873C1304.8 544.997 1336.59 486.965 1343.13 423.384C1348.74 369.321 1337.89 314.66 1334.6 260.123C1328.84 166.163 1347.58 70.2771 1385.47 -9.17662C1405.93 -51.7544 1431.87 -89.4887 1462.48 -120.049C1518.32 -175.848 1588.92 -207.058 1661.85 -212.121C1703.66 -215.071 1746.1 -209.09 1786.72 -193.69M-48.12 433.952C16.3082 381.327 115.835 373.534 198.312 417.48C239.794 439.484 276.673 472.279 312.854 503.237C349.969 534.908 385.88 564.772 426.673 580.931C439.836 586.139 453.314 589.848 467.517 591.694C520.824 598.307 573.263 609.442 629.329 610.863C691.69 612.486 737.15 580.28 779.225 536.015C788.953 525.837 798.545 515.513 808.097 505.376C836.167 475.772 864.271 448.786 900.44 440.94C920.893 436.457 943.693 437.471 969.71 446.58C1034.6 469.099 1066.19 538.924 1117.6 573.175C1124.4 577.754 1131.62 581.474 1138.9 584.513C1175.33 599.613 1217.32 595.821 1252.41 571.676C1294.61 542.69 1325.33 485 1332.37 422.19C1338.49 368.498 1329.14 314.238 1327.19 260.05C1323.71 166.753 1343.74 71.8983 1382.58 -6.13403C1403.52 -48.2483 1429.95 -85.1184 1460.73 -114.918C1516.96 -169.385 1587.38 -199.352 1660.47 -204.363C1702.19 -207.245 1744.56 -201.383 1785.12 -186.504M-45.3268 448.822C18.3058 403.551 116.578 398.947 198.787 440.998C240.29 462.107 277.349 492.857 313.692 521.062C350.871 550.047 386.731 576.586 427.198 590.331C440.188 594.778 453.55 597.847 467.56 599.027C520.072 603.469 571.757 611.845 627.61 612.694C689.115 613.629 734.862 583.625 777.105 543.326C786.889 534.068 796.517 524.759 806.086 515.731C834.189 489.145 861.974 465.261 897.71 459.075C918.045 455.555 940.648 457.105 966.316 465.495C1030.58 486.604 1063.32 550.194 1113.65 579.672C1120.33 583.611 1127.34 586.759 1134.49 589.251C1169.93 601.515 1210.34 595.692 1244.11 570.702C1284.71 540.581 1314.29 483.208 1321.89 421.288C1328.42 368.033 1320.76 314.04 1320.16 260.202C1318.94 167.66 1340.44 73.7021 1380.06 -2.86742C1401.57 -44.4921 1428.32 -80.5502 1459.38 -109.658C1515.97 -162.698 1586.31 -191.489 1659.38 -196.406C1701 -199.221 1743.26 -193.598 1783.84 -179.214M-42.5335 463.692C20.401 425.706 117.243 424.333 199.261 464.516C240.709 484.704 278.122 513.367 314.608 538.913C351.949 565.145 387.562 588.494 427.782 599.849C440.675 603.563 453.864 605.872 467.583 606.453C519.398 608.657 570.154 614.316 625.813 614.498C686.481 614.652 732.516 586.85 774.906 550.61C784.766 542.18 794.49 534.006 804.018 525.966C832.075 502.373 859.521 481.683 894.981 477.21C915.196 474.652 937.605 476.338 962.922 484.41C1026.45 504.67 1060.35 561.532 1109.68 586.263C1116.24 589.562 1123.06 592.044 1129.99 593.963C1164.45 603.39 1203.27 595.63 1235.73 569.703C1274.84 538.378 1303.32 481.442 1311.42 420.293C1318.44 367.501 1312.3 313.816 1313.12 260.353C1314.24 168.594 1337.13 75.5994 1377.55 0.305461C1399.63 -40.8297 1426.79 -76.0496 1458.02 -104.397C1514.9 -156.038 1585.14 -183.559 1658.37 -188.424C1699.97 -191.144 1742.03 -185.788 1782.56 -171.923M-39.7985 478.443C22.3403 447.81 117.948 449.532 199.736 488.034C241.205 507.327 278.818 533.852 315.426 556.831C352.91 580.405 388.394 600.401 428.189 609.41C441.007 612.296 453.982 614.032 467.508 613.947C518.568 613.793 568.531 616.881 623.997 616.397C683.809 615.863 730.131 590.263 772.688 557.988C782.604 550.48 792.364 543.32 801.929 536.295C829.999 515.814 857.147 498.132 892.154 495.413C912.329 493.844 934.502 495.851 959.431 503.393C1022.3 522.429 1057.37 572.964 1105.63 592.829C1112.08 595.487 1118.68 597.396 1125.4 598.743C1158.87 605.333 1196.09 595.635 1227.26 568.771C1264.77 536.311 1292.16 479.811 1300.79 419.339C1308.21 366.984 1303.69 313.539 1305.83 260.52C1309.21 169.517 1333.56 77.5122 1374.78 3.58748C1397.4 -36.9645 1424.99 -71.4398 1456.47 -99.0015C1513.74 -149.31 1583.8 -175.587 1657.09 -180.332C1698.61 -183.079 1740.61 -177.842 1781.06 -164.404M-37.0052 493.313C24.3576 469.939 118.692 474.945 200.211 511.552C241.623 529.924 279.592 554.362 316.264 574.656C353.909 595.477 389.167 612.189 428.695 618.902C441.338 621.029 454.218 622.031 467.511 621.467C517.875 619.075 566.908 619.445 622.18 618.295C681.214 617.1 727.746 593.675 770.449 565.46C780.423 558.872 790.239 552.634 799.821 546.718C827.845 529.229 854.732 514.769 889.308 513.709C909.363 513.102 931.38 515.459 955.843 522.443C1018.05 540.256 1054.28 584.463 1101.49 599.461C1107.82 601.479 1114.3 602.748 1120.81 603.523C1153.21 607.249 1188.94 595.547 1218.78 567.839C1254.77 534.269 1281.09 478.112 1290.2 418.504C1298.11 366.613 1295.27 313.529 1298.68 260.833C1304.49 170.544 1330.22 79.5033 1372.14 7.01537C1395.32 -33.047 1423.25 -66.7103 1454.99 -93.5797C1512.63 -142.462 1582.61 -167.563 1655.98 -172.282C1697.4 -174.961 1739.27 -169.87 1779.76 -157.02M-34.212 508.183C26.3551 492.163 119.395 500.545 200.685 535.07C242.099 552.641 280.268 574.94 317.18 592.507C354.909 610.549 390.096 624.03 429.278 628.421C441.826 629.814 454.512 630.15 467.611 628.92C517.279 624.289 565.44 622.062 620.519 620.245C678.697 618.363 725.595 597.166 768.309 572.864C778.339 567.198 788.192 561.974 797.81 557.073C825.769 542.67 852.436 531.244 886.579 531.844C906.515 532.2 928.317 534.785 952.449 541.358C1014 557.948 1051.39 595.827 1097.52 606.052C1103.65 607.404 1110.01 608.127 1116.3 608.328C1147.71 609.218 1181.77 595.553 1210.4 566.839C1244.8 532.134 1270.12 476.346 1279.66 417.483C1288 365.935 1286.73 313.279 1291.49 260.933C1299.56 171.4 1326.75 81.3485 1369.56 10.1622C1393.31 -29.4106 1421.64 -62.2358 1453.56 -88.3452C1511.59 -135.895 1581.39 -159.752 1654.81 -164.351C1696.13 -166.963 1737.89 -162.111 1778.4 -149.756M-31.4967 523.027C28.2945 514.266 119.983 525.905 201.16 558.588C242.517 575.238 281.041 595.45 318.018 610.332C355.889 625.714 390.849 635.911 429.705 637.888C442.157 638.547 454.67 638.123 467.556 636.32C516.469 629.332 563.759 624.507 618.722 622.05C676.044 619.48 723.249 600.391 766.11 580.148C776.196 575.403 786.164 571.221 795.742 567.308C823.655 555.898 850.061 547.693 883.849 549.978C903.666 551.298 925.312 554.231 949.055 560.273C1009.94 575.639 1048.52 607.098 1093.64 612.576C1099.66 613.288 1105.82 613.344 1111.98 612.999C1142.41 611.052 1174.89 595.356 1202.2 565.798C1235.08 529.984 1259.25 474.513 1269.36 416.539C1278.18 365.455 1278.53 313.039 1284.63 261.043C1294.95 172.266 1323.68 83.2304 1367.22 13.3873C1391.51 -25.6023 1420.26 -57.683 1452.36 -83.0325C1510.67 -129.182 1580.4 -151.863 1653.96 -156.317C1695.18 -158.861 1736.9 -154.222 1777.33 -142.294M-28.7034 537.898C30.292 536.489 120.746 551.224 201.634 582.106C243.013 597.861 281.737 615.934 318.836 628.25C356.87 640.88 391.661 647.913 430.211 647.381C442.509 647.186 454.906 646.122 467.579 643.747C515.795 634.52 562.214 627.098 616.926 623.855C673.469 620.623 720.961 603.735 763.911 587.433C774.054 583.609 784.059 580.441 793.673 577.543C821.541 569.126 847.686 564.141 881.042 568.087C900.818 570.395 922.151 573.625 945.584 579.162C1005.81 593.305 1045.55 618.436 1089.62 619.047C1095.52 619.119 1101.47 618.602 1107.41 617.685C1136.85 612.901 1167.74 595.268 1193.75 564.773C1225.03 527.823 1248.2 472.72 1258.74 415.491C1268.05 364.871 1269.92 312.763 1277.36 261.116C1290.02 173.121 1320.15 84.9559 1364.46 16.5756C1389.39 -21.8983 1418.4 -53.193 1450.77 -77.8502C1509.45 -122.573 1579.01 -144.104 1652.65 -148.532C1693.78 -151.008 1735.36 -146.516 1775.75 -135.202M-25.8905 552.674C32.3093 558.619 121.509 576.543 202.109 605.624C243.412 620.551 282.432 636.418 319.752 646.101C357.85 656.045 392.512 659.727 430.794 656.9C442.996 655.971 455.2 654.241 467.601 651.173C515.062 639.588 560.688 629.595 615.187 625.779C670.875 621.86 718.732 607.2 761.771 594.837C771.97 591.934 782.011 589.781 791.662 587.898C819.465 582.567 845.37 580.71 878.313 586.222C897.97 589.493 919.146 593.071 942.113 598.051C1001.7 610.877 1042.61 629.68 1085.57 625.612C1091.36 625.044 1097.19 623.887 1102.84 622.371C1131.29 614.75 1160.59 595.18 1185.21 563.721C1214.98 525.662 1237.08 470.902 1248.12 414.444C1257.91 364.287 1261.38 312.513 1270.16 261.215C1285.09 173.977 1316.76 86.8272 1361.8 19.6964C1387.28 -18.1943 1416.72 -48.7445 1449.26 -72.6418C1508.33 -116.032 1577.79 -136.294 1651.49 -140.602C1692.51 -143.01 1734.06 -138.731 1774.39 -127.938M-23.1751 567.518C34.3266 580.748 122.174 601.929 202.584 629.143C243.908 643.174 283.186 657.022 320.589 663.926C358.849 671.117 393.343 671.634 431.222 666.366C443.328 664.704 455.358 662.214 467.546 658.573C514.31 644.75 558.987 632.133 613.312 627.558C668.222 622.977 716.347 610.613 759.494 602.095C769.75 600.114 779.828 598.976 789.516 598.108C817.273 595.768 842.917 597.133 875.428 604.305C894.946 608.632 916.005 612.372 938.583 616.82C997.511 628.422 1039.6 640.805 1081.48 631.964C1087.15 630.755 1092.77 629.026 1098.29 626.963C1125.75 616.505 1153.4 594.879 1176.8 562.509C1204.97 523.313 1226.07 468.922 1237.52 413.302C1247.82 363.515 1252.81 312.049 1262.92 261.195C1280.1 174.713 1313.3 88.5787 1359.07 22.7911C1385.11 -14.61 1414.95 -44.3221 1447.75 -67.4334C1507.18 -109.398 1576.47 -128.415 1650.24 -132.697C1691.19 -135.132 1732.6 -130.999 1772.93 -120.606M-20.3819 582.388C36.3241 602.972 122.937 627.248 203.058 652.661C244.326 665.771 283.882 677.506 321.408 681.845C359.83 686.283 394.175 683.542 431.707 675.953C443.64 673.53 455.574 670.306 467.549 666.093C513.559 649.912 557.422 634.818 611.573 629.482C665.627 624.214 714.196 614.103 757.256 609.567C767.646 608.533 777.683 608.383 787.388 608.624C815.099 609.277 840.541 613.982 872.639 622.72C892.117 628.036 912.863 632.073 935.13 636.016C993.476 646.421 1036.67 652.356 1077.47 638.742C1083.03 636.893 1088.45 634.498 1093.76 631.863C1120.23 618.568 1146.28 595.004 1168.38 561.696C1195.03 521.392 1215.07 467.344 1227.02 412.494C1237.73 363.144 1244.39 312.038 1255.84 261.534C1275.3 175.714 1309.95 90.6634 1356.51 26.2451C1383.11 -10.6666 1413.29 -39.5666 1446.33 -61.8918C1506.06 -102.456 1575.26 -120.298 1649.17 -124.434C1690.1 -126.775 1731.31 -122.907 1771.67 -113.009M-17.5887 597.259C38.3414 625.101 123.681 652.661 203.533 676.179C244.822 688.394 284.655 698.016 322.323 699.696C360.888 701.475 395.006 695.45 432.291 685.472C444.127 682.315 455.887 678.331 467.65 673.546C512.982 655.033 555.896 637.315 609.834 631.407C663.11 625.477 711.947 617.661 755.116 616.971C765.562 616.858 775.636 617.724 785.377 618.979C813.063 622.531 838.441 629.521 869.91 640.855C889.131 647.789 909.858 651.519 931.737 654.931C989.442 664.019 1033.8 663.626 1073.52 645.24C1078.96 642.751 1084.17 639.782 1089.34 636.601C1114.83 620.469 1139.31 594.875 1160.08 560.723C1185.13 519.283 1204.18 465.603 1216.55 411.498C1227.75 362.612 1235.93 311.814 1248.75 261.566C1270.47 176.502 1306.65 92.4671 1354.03 29.3243C1381.25 -6.978 1411.78 -35.1596 1445.01 -56.8186C1505.12 -96.0503 1574.23 -112.622 1648.14 -116.758C1688.97 -119.032 1730.13 -115.284 1770.43 -105.906M-14.8536 612.009C40.2808 647.204 124.347 677.647 204.027 699.603C245.28 710.803 285.351 718.5 323.181 717.427C361.829 716.427 395.857 707.264 432.757 694.751C444.518 690.767 456.065 686.21 467.634 680.759C512.192 659.982 554.312 639.692 608.077 633.024C660.477 626.501 709.699 620.819 752.956 624.068C763.459 624.877 773.589 626.663 783.348 629.027C810.91 635.545 835.87 646.906 867.143 658.777C886.44 666.138 906.737 670.725 928.227 673.607C985.272 681.471 1030.81 674.657 1069.51 651.618C1074.76 648.462 1079.93 644.88 1084.81 641.1C1109.31 622.131 1132.19 594.6 1151.66 559.51C1175.2 516.96 1193.09 463.598 1205.95 410.357C1217.64 361.934 1227.28 311.325 1241.57 261.571C1265.4 177.211 1303.27 94.2448 1351.37 32.4451C1379.16 -3.36762 1410.09 -30.7111 1443.5 -51.6102C1503.98 -89.4157 1572.93 -104.838 1646.97 -108.828C1687.71 -111.034 1728.74 -107.525 1768.99 -98.6676M-12.0604 626.879C42.2783 669.428 125.09 703.059 204.482 723.215C245.756 733.52 286.027 739.078 323.979 735.439C362.77 731.78 396.591 719.239 433.223 704.431C444.81 699.687 456.184 694.371 467.617 688.373C511.498 665.263 552.728 642.47 606.319 635.042C657.94 627.858 707.41 624.564 750.796 631.566C761.355 633.296 771.483 636.284 781.318 639.476C808.972 648.33 833.534 663.569 864.374 677.099C883.552 685.423 903.712 690.265 924.794 692.709C981.199 699.256 1027.85 685.995 1065.52 658.302C1070.65 654.507 1075.61 650.352 1080.28 645.999C1103.79 624.193 1125.1 594.632 1143.24 558.698C1165.19 515.013 1182.08 462.019 1195.45 409.549C1207.64 361.496 1218.86 311.314 1234.42 261.884C1260.58 178.306 1299.92 96.3295 1348.75 35.7793C1377.16 0.575842 1408.37 -26.0753 1442.03 -46.1884C1502.8 -82.5937 1571.66 -96.8395 1645.77 -100.71C1686.4 -102.848 1727.32 -99.5795 1767.59 -91.2161M-9.26714 641.75C44.2955 691.557 125.833 728.472 204.957 746.733C246.174 756.117 286.8 759.589 324.895 753.29C363.848 746.878 397.559 731.293 433.807 713.95C445.298 708.472 456.497 702.396 467.64 695.799C510.766 670.332 551.182 645.061 604.522 636.847C655.268 629.068 705.103 628.003 748.597 638.851C759.213 641.501 769.417 645.317 779.249 649.711C806.74 662.12 831.139 680.111 861.587 695.114C880.626 704.494 900.649 709.592 921.342 711.505C977.107 716.735 1024.84 697.12 1061.51 664.68C1066.53 660.244 1071.29 655.423 1075.83 650.524C1098.27 625.855 1117.99 594.356 1134.93 557.418C1155.37 512.529 1171.17 459.972 1184.97 408.246C1197.64 360.657 1210.38 310.783 1227.37 261.729C1255.79 178.907 1296.66 97.9458 1346.21 38.7388C1375.17 4.11858 1406.82 -21.8817 1440.65 -41.2348C1501.81 -76.3077 1570.5 -89.3098 1644.74 -93.0344C1685.28 -95.1053 1726.14 -91.9561 1766.35 -84.1132M-6.55178 656.594C46.2152 713.754 126.518 753.765 205.431 770.251C246.67 778.74 287.496 780.073 325.733 771.115C364.75 762.018 398.332 743.081 434.312 723.443C445.707 717.231 456.733 710.395 467.663 703.225C509.975 675.28 549.618 647.745 602.783 638.771C652.751 630.331 702.992 630.905 746.359 646.322C757.07 650.108 767.369 654.658 777.219 660.16C804.684 675.467 828.783 696.867 858.896 713.462C877.797 723.898 897.625 729.131 917.987 730.633C973.092 734.64 1022.01 708.604 1057.58 671.485C1062.48 666.409 1067.03 661.015 1071.35 655.543C1092.81 628.037 1110.93 594.601 1126.57 556.725C1145.42 510.701 1160.3 458.539 1174.5 407.651C1187.67 360.525 1202.02 310.892 1220.33 262.281C1251.03 180.122 1293.49 100.296 1343.69 42.4061C1373.29 8.30155 1405.27 -16.8867 1439.28 -35.4799C1500.8 -69.1266 1569.4 -80.9526 1643.65 -84.6772C1684.09 -86.6805 1724.83 -83.7708 1765.06 -76.4222M-3.75854 671.464C48.3104 735.91 127.262 779.177 205.906 793.769C247.088 801.337 288.25 800.677 326.629 789.06C365.808 777.21 399.221 755.108 434.798 733.029C446.097 726.084 456.93 718.581 467.666 710.745C509.282 680.562 548.052 650.429 600.966 640.669C650.137 631.662 700.507 635.187 744.141 653.7C754.928 658.313 765.244 663.972 775.13 670.489C802.647 688.721 826.291 713.477 856.069 731.665C874.831 743.157 894.522 748.645 914.418 749.589C968.883 752.279 1018.88 719.89 1053.45 678.024C1058.24 672.307 1062.68 666.273 1066.78 660.229C1087.25 629.886 1103.8 594.42 1118.03 555.674C1135.36 508.54 1149.18 456.72 1163.81 406.577C1177.53 359.941 1193.33 310.589 1213 262.235C1245.96 180.831 1290.02 102.141 1340.9 45.3811C1371.12 11.8858 1403.37 -12.6101 1437.71 -30.3912C1499.61 -62.7053 1568.02 -73.194 1642.42 -76.8665C1682.79 -78.8958 1723.47 -76.1059 1763.56 -69.3039M-0.945604 686.24C50.3276 758.04 127.947 804.47 206.38 817.287C247.584 823.96 288.946 821.161 327.467 806.885C366.808 792.282 400.053 767.016 435.323 742.428C446.448 734.723 457.185 726.487 467.688 718.172C508.55 685.631 546.488 653.114 599.247 642.5C647.62 632.925 698.18 638.719 742.02 661.011C752.863 666.545 763.236 673.125 773.139 680.75C800.631 701.881 823.975 730.046 853.34 749.8C872.041 762.375 891.459 767.971 911.024 768.505C964.791 769.757 1015.88 731.014 1049.5 684.521C1054.09 678.138 1058.4 671.558 1062.29 664.941C1081.77 631.761 1096.72 594.358 1109.65 554.674C1125.39 506.405 1138.21 454.954 1153.34 405.582C1167.56 359.409 1184.95 310.391 1205.97 262.386C1241.18 181.739 1286.78 104.065 1338.45 48.6738C1369.3 15.7878 1401.89 -7.98974 1436.43 -25.1046C1498.63 -56.0186 1566.95 -65.3312 1641.41 -68.884C1681.75 -70.8196 1722.25 -68.2952 1762.34 -61.894M1.84764 701.111C78.9335 821.851 216.332 873.853 328.383 824.736C367.788 807.447 400.904 778.83 435.906 751.947C489.923 710.375 531.508 658.527 597.528 644.331C656.821 631.593 721.314 647.264 771.051 691.079C798.496 715.203 821.56 746.682 850.533 767.908C927.565 824.268 1017.58 747.924 1057.8 669.653C1098.74 589.92 1114.43 493.112 1142.88 404.586C1182.26 281.923 1252.19 138.104 1335.85 51.9143C1423.79 -38.7583 1524.45 -55.497 1640.24 -60.9535C1680.49 -62.8216 1720.85 -60.443 1760.98 -54.6297" stroke="#2A2F3A" stroke-miterlimit="10"/>
</svg>
