<svg width="409" height="710" viewBox="0 0 409 710" fill="none" xmlns="http://www.w3.org/2000/svg">
<path d="M687.342 151.877C631.77 141 574.767 134.149 518.607 141.348C462.447 148.548 406.856 170.743 367.371 211.224C327.886 251.705 306.689 311.918 320.592 366.797C328.206 397.018 345.52 423.646 360.141 451.141C374.762 478.637 387.215 509.014 383.891 539.955C380.567 570.896 356.707 601.529 325.574 602.621C291.535 603.748 263.805 571.48 229.726 570.481C191.449 569.343 164.671 606.541 145.126 639.503C125.581 672.466 99.0967 709.781 60.8555 709.066C30.2191 708.483 4.6806 680.286 1.02374 649.869C-2.63312 619.452 12.1605 589.023 34.0352 567.572C55.91 546.121 84.0413 532.298 112.365 520.729C148.504 505.939 190.981 488.907 200.899 451.229C206.432 430.39 199.849 408.1 189.507 389.181C179.166 370.263 165.253 353.565 154.166 335.065C118.828 275.981 116.627 198.53 148.469 137.482C172.686 91.0633 214.867 53.9009 228.736 3.46778C239.964 -37.1597 231.027 -80.3976 222.054 -121.574L687.342 151.877Z" fill="url(#paint0_linear_10_4)"/>
<defs>
<linearGradient id="paint0_linear_10_4" x1="495.888" y1="-9.50586" x2="-46.687" y2="634.17" gradientUnits="userSpaceOnUse">
<stop stop-color="#3970BD"/>
<stop offset="1" stop-color="#1A3457" stop-opacity="0"/>
</linearGradient>
</defs>
</svg>
