<svg width="100" height="100" viewBox="0 0 100 100" fill="none" xmlns="http://www.w3.org/2000/svg">
<path fill-rule="evenodd" clip-rule="evenodd" d="M25 50L34 50L34 100L35 100L35 50L39 50L39 100L40 100L40 50L44 50L44 100L45 100L45 50L49 50L49 100L50 100L50 50L100 50L100 49L50 49L50 45L100 45L100 44L50 44L50 40L100 40L100 39L50 39L50 35L100 35L100 34L50 34L50 25C50 11.1929 38.8071 -5.34965e-06 25 -6.55671e-06C11.1929 -7.76377e-06 7.76377e-06 11.1929 6.55671e-06 25C5.34965e-06 38.8071 11.1929 50 25 50ZM45 45L49 45L49 49L45 49L45 45ZM44 45L40 45L40 49L44 49L44 45ZM39 45L35 45L35 49L39 49L39 45ZM34 45L34 49L25 49C11.7452 49 1.00001 38.2548 1.00001 25C1.00001 11.7452 11.7452 0.999992 25 0.999993C38.2548 0.999995 49 11.7452 49 25L49 34L45 34L45 25C45 13.9543 36.0457 4.99999 25 4.99999C13.9543 4.99999 5.00001 13.9543 5.00001 25C5.00001 36.0457 13.9543 45 25 45L34 45ZM45 35L49 35L49 39L45 39L45 35ZM44 34L44 25C44 14.5066 35.4934 5.99999 25 5.99999C14.5066 5.99999 6.00001 14.5066 6.00001 25C6.00001 35.4934 14.5066 44 25 44L34 44L34 40L25 40C16.7157 40 10 33.2843 10 25C10 16.7157 16.7157 9.99999 25 9.99999C33.2843 9.99999 40 16.7157 40 25L40 34L44 34ZM39 40L35 40L35 44L39 44L39 40ZM40 44L40 40L44 40L44 44L40 44ZM40 39L40 35L44 35L44 39L40 39ZM39 25L39 34L35 34L35 25C35 19.4772 30.5228 15 25 15C19.4772 15 15 19.4772 15 25C15 30.5228 19.4772 35 25 35L34 35L34 39L25 39C17.268 39 11 32.732 11 25C11 17.268 17.268 11 25 11C32.732 11 39 17.268 39 25ZM34 25C34 20.0294 29.9706 16 25 16C20.0294 16 16 20.0294 16 25C16 29.9706 20.0294 34 25 34L34 34L34 25ZM35 35L35 39L39 39L39 35L35 35ZM45 40L49 40L49 44L45 44L45 40Z" fill="#3970BD" fill-opacity="0.3"/>
</svg>
