<svg width="141" height="96" viewBox="0 0 141 96" fill="none" xmlns="http://www.w3.org/2000/svg">
<path d="M14 96C15.1046 96 16 95.1046 16 94C16 92.8954 15.1046 92 14 92C12.8954 92 12 92.8954 12 94C12 95.1046 12.8954 96 14 96Z" fill="#3970BD"/>
<path d="M14 73C15.1046 73 16 72.1046 16 71C16 69.8954 15.1046 69 14 69C12.8954 69 12 69.8954 12 71C12 72.1046 12.8954 73 14 73Z" fill="#3970BD"/>
<path d="M14 50C15.1046 50 16 49.1046 16 48C16 46.8954 15.1046 46 14 46C12.8954 46 12 46.8954 12 48C12 49.1046 12.8954 50 14 50Z" fill="#3970BD"/>
<path d="M14 27C15.1046 27 16 26.1046 16 25C16 23.8954 15.1046 23 14 23C12.8954 23 12 23.8954 12 25C12 26.1046 12.8954 27 14 27Z" fill="#3970BD"/>
<path d="M14 4C15.1046 4 16 3.10457 16 2C16 0.89543 15.1046 0 14 0C12.8954 0 12 0.89543 12 2C12 3.10457 12.8954 4 14 4Z" fill="#3970BD"/>
<path d="M39 96C40.1046 96 41 95.1046 41 94C41 92.8954 40.1046 92 39 92C37.8954 92 37 92.8954 37 94C37 95.1046 37.8954 96 39 96Z" fill="#3970BD"/>
<path d="M39 73C40.1046 73 41 72.1046 41 71C41 69.8954 40.1046 69 39 69C37.8954 69 37 69.8954 37 71C37 72.1046 37.8954 73 39 73Z" fill="#3970BD"/>
<path d="M39 50C40.1046 50 41 49.1046 41 48C41 46.8954 40.1046 46 39 46C37.8954 46 37 46.8954 37 48C37 49.1046 37.8954 50 39 50Z" fill="#3970BD"/>
<path d="M39 27C40.1046 27 41 26.1046 41 25C41 23.8954 40.1046 23 39 23C37.8954 23 37 23.8954 37 25C37 26.1046 37.8954 27 39 27Z" fill="#3970BD"/>
<path d="M39 4C40.1046 4 41 3.10457 41 2C41 0.89543 40.1046 0 39 0C37.8954 0 37 0.89543 37 2C37 3.10457 37.8954 4 39 4Z" fill="#3970BD"/>
<path d="M64 96C65.1046 96 66 95.1046 66 94C66 92.8954 65.1046 92 64 92C62.8954 92 62 92.8954 62 94C62 95.1046 62.8954 96 64 96Z" fill="#3970BD"/>
<path d="M64 73C65.1046 73 66 72.1046 66 71C66 69.8954 65.1046 69 64 69C62.8954 69 62 69.8954 62 71C62 72.1046 62.8954 73 64 73Z" fill="#3970BD"/>
<path d="M64 50C65.1046 50 66 49.1046 66 48C66 46.8954 65.1046 46 64 46C62.8954 46 62 46.8954 62 48C62 49.1046 62.8954 50 64 50Z" fill="#3970BD"/>
<path d="M64 27C65.1046 27 66 26.1046 66 25C66 23.8954 65.1046 23 64 23C62.8954 23 62 23.8954 62 25C62 26.1046 62.8954 27 64 27Z" fill="#3970BD"/>
<path d="M64 4C65.1046 4 66 3.10457 66 2C66 0.89543 65.1046 0 64 0C62.8954 0 62 0.89543 62 2C62 3.10457 62.8954 4 64 4Z" fill="#3970BD"/>
<path d="M89 96C90.1046 96 91 95.1046 91 94C91 92.8954 90.1046 92 89 92C87.8954 92 87 92.8954 87 94C87 95.1046 87.8954 96 89 96Z" fill="#3970BD"/>
<path d="M89 73C90.1046 73 91 72.1046 91 71C91 69.8954 90.1046 69 89 69C87.8954 69 87 69.8954 87 71C87 72.1046 87.8954 73 89 73Z" fill="#3970BD"/>
<path d="M89 50C90.1046 50 91 49.1046 91 48C91 46.8954 90.1046 46 89 46C87.8954 46 87 46.8954 87 48C87 49.1046 87.8954 50 89 50Z" fill="#3970BD"/>
<path d="M89 27C90.1046 27 91 26.1046 91 25C91 23.8954 90.1046 23 89 23C87.8954 23 87 23.8954 87 25C87 26.1046 87.8954 27 89 27Z" fill="#3970BD"/>
<path d="M89 4C90.1046 4 91 3.10457 91 2C91 0.89543 90.1046 0 89 0C87.8954 0 87 0.89543 87 2C87 3.10457 87.8954 4 89 4Z" fill="#3970BD"/>
<path d="M114 96C115.105 96 116 95.1046 116 94C116 92.8954 115.105 92 114 92C112.895 92 112 92.8954 112 94C112 95.1046 112.895 96 114 96Z" fill="#3970BD"/>
<path d="M114 73C115.105 73 116 72.1046 116 71C116 69.8954 115.105 69 114 69C112.895 69 112 69.8954 112 71C112 72.1046 112.895 73 114 73Z" fill="#3970BD"/>
<path d="M114 50C115.105 50 116 49.1046 116 48C116 46.8954 115.105 46 114 46C112.895 46 112 46.8954 112 48C112 49.1046 112.895 50 114 50Z" fill="#3970BD"/>
<path d="M114 27C115.105 27 116 26.1046 116 25C116 23.8954 115.105 23 114 23C112.895 23 112 23.8954 112 25C112 26.1046 112.895 27 114 27Z" fill="#3970BD"/>
<path d="M114 4C115.105 4 116 3.10457 116 2C116 0.89543 115.105 0 114 0C112.895 0 112 0.89543 112 2C112 3.10457 112.895 4 114 4Z" fill="#3970BD"/>
<path d="M139 96C140.105 96 141 95.1046 141 94C141 92.8954 140.105 92 139 92C137.895 92 137 92.8954 137 94C137 95.1046 137.895 96 139 96Z" fill="#3970BD"/>
<path d="M139 73C140.105 73 141 72.1046 141 71C141 69.8954 140.105 69 139 69C137.895 69 137 69.8954 137 71C137 72.1046 137.895 73 139 73Z" fill="#3970BD"/>
<path d="M139 50C140.105 50 141 49.1046 141 48C141 46.8954 140.105 46 139 46C137.895 46 137 46.8954 137 48C137 49.1046 137.895 50 139 50Z" fill="#3970BD"/>
<path d="M139 27C140.105 27 141 26.1046 141 25C141 23.8954 140.105 23 139 23C137.895 23 137 23.8954 137 25C137 26.1046 137.895 27 139 27Z" fill="#3970BD"/>
<path d="M139 4C140.105 4 141 3.10457 141 2C141 0.89543 140.105 0 139 0C137.895 0 137 0.89543 137 2C137 3.10457 137.895 4 139 4Z" fill="#3970BD"/>
</svg>
