<svg width="301" height="400" viewBox="0 0 301 400" fill="none" xmlns="http://www.w3.org/2000/svg">
<path d="M-60.8321 399.747C-6.34481 385.129 41.8643 348.471 70.4532 299.833C93.571 260.581 105.331 212.876 139.814 183.103C157.711 167.668 180.083 158.668 202.164 150.313C224.244 141.958 246.838 133.889 265.829 119.897C284.82 105.904 300.08 84.6939 300.897 61.102C301.55 42.3442 292.499 23.469 277.397 12.2436C262.295 1.01818 241.656 -2.27134 223.864 3.72293C197.469 12.6484 181.239 38.4729 167.503 62.672C153.766 86.8712 138.366 112.969 112.492 123.207C76.1168 137.608 34.2452 114.82 -3.65526 124.495C-36.7645 132.937 -58.6301 163.588 -77.5553 192.028L-60.8321 399.747Z" fill="url(#paint0_linear_10_2)"/>
<defs>
<linearGradient id="paint0_linear_10_2" x1="-110.388" y1="288.49" x2="322.602" y2="95.6302" gradientUnits="userSpaceOnUse">
<stop stop-color="#3970BD"/>
<stop offset="1" stop-color="#1A3457" stop-opacity="0"/>
</linearGradient>
</defs>
</svg>
